<?xml version="1.0" encoding="utf-8"?>
<!-- Generator: Adobe Illustrator 24.2.0, SVG Export Plug-In . SVG Version: 6.00 Build 0)  -->
<svg version="1.1" id="Layer_1" xmlns="http://www.w3.org/2000/svg" xmlns:xlink="http://www.w3.org/1999/xlink" x="0px" y="0px"
	 viewBox="0 0 276.26 86.3" style="enable-background:new 0 0 276.26 86.3;" xml:space="preserve">
<style type="text/css">
	.st0{fill:#87007A;}
	.st1{fill:#FC0061;}
</style>
<g>
	<g>
		<g>
			<path class="st0" d="M272.83,52c-0.08,0.2-0.16,0.4-0.25,0.6c-2.01,4.6-4.69,8.29-7.96,10.98c-2.03,1.67-4.16,3.02-6.34,4.02
				c-3.01,3.4-6.17,5.74-9.61,7.09c-6.65,2.61-11.79,1.14-14.93-0.55c-0.33-0.18-0.66-0.37-1-0.59c-0.35,0.18-0.69,0.35-1.04,0.5
				c-2.42,1.1-5.02,1.75-7.74,1.95c-4.3,0.28-8.38-0.72-11.88-2.91c-0.67-0.41-1.3-0.87-1.9-1.36c-1.67,1.26-3.4,2.25-5.21,2.96
				c-6.32,2.48-11.28,1.28-14.46-0.3c-2.07,1.86-4.19,3.41-6.37,4.66c-4.39,2.53-8.76,3.81-13,3.81c-0.31,0-0.61-0.01-0.91-0.02
				c-0.06-0.01-0.13-0.01-0.19-0.01c-7.88-0.49-12.65-4.01-15.27-6.89c-0.54-0.59-1.05-1.22-1.53-1.86
				c-2.47,1.21-5.14,1.86-7.87,1.9c-0.17,0.01-0.35,0-0.53,0c-3.49-0.13-6.19-0.99-8.27-2.16c-2.7,2.11-5.95,3.22-9.43,3.22
				c-3.27,0-6.31-1.1-8.75-3.11c-0.56,0.28-1.12,0.53-1.69,0.76c-6.65,2.61-11.79,1.14-14.93-0.55c-0.15-0.08-0.29-0.16-0.44-0.25
				c-2.91,1.47-5.92,2.17-8.97,2.11c-2.68-0.05-5.18-0.73-7.38-1.95c-2.33,1.07-4.88,1.71-7.57,1.91c-3.9,0.26-7.58-0.56-10.77-2.37
				c-0.32,2.51-1.55,4.84-3.52,6.55c-2.77,2.41-6.19,3.68-9.91,3.68c-4.51,0-8.64-2.12-11.32-5.82c-0.82-1.12-1.44-2.34-1.88-3.66
				c-0.78-0.07-1.56-0.19-2.34-0.36c-0.4,2.42-1.66,4.63-3.6,6.27c-2.77,2.34-6.16,3.57-9.82,3.57c-4.59,0-8.74-2.17-11.39-5.97
				c-2.54-3.63-3.1-8.19-1.68-13.56c0.02-0.09,0.05-0.18,0.07-0.27c1.24-4.2,2.62-8.28,4.1-12.11c0.39-1.01,0.79-2.02,1.18-3.02
				c-2.43-0.21-4.71-0.97-6.73-2.25C6.84,44.75,4.7,42,3.62,38.66c-1.01-3.13-0.98-6.51,0.11-9.77c0.04-0.1,0.07-0.21,0.11-0.31
				c1.23-3.33,3.13-6.6,5.64-9.74c2.37-2.95,5.13-5.6,8.2-7.89c3.4-2.52,7-4.32,10.74-5.37c4.71-1.33,9.5-1.1,13.85,0.65
				c0.09,0.04,0.18,0.07,0.28,0.12c4.5,1.96,7.98,4.87,10.35,8.64c0.51,0.81,0.97,1.64,1.38,2.49c0.03-0.06,0.07-0.11,0.1-0.17
				c0.76-1.18,1.18-1.91,1.39-2.32c0.93-4.04,4.21-7.26,8.46-7.99c5.91-1.01,10,0.8,12.39,2.5c3.12,2.22,5.29,5.32,6.26,8.97
				c0.58,2.2,0.73,4.42,0.43,6.55c1.5,0.01,2.92,0.18,4.26,0.49c0.26-0.68,0.5-1.32,0.72-1.93c-0.72-3.57,0.46-7.26,3.11-9.75
				c2.32-2.17,5.14-3.61,8.17-4.18c3.08-0.58,6.18-0.27,8.97,0.89c3.59,1.51,6.32,4.36,7.69,8.03c0.8,2.17,1.04,4.48,0.71,6.88
				c0.68-0.06,1.36-0.09,2.04-0.08c3.38,0.01,6.06,0.76,8.15,1.77c0.92-0.57,1.92-1.06,2.97-1.46c2.27-0.87,4.6-1.29,6.89-1.26
				c1.94,0.03,3.6,0.39,4.99,0.9c2.84-0.52,5.72-0.39,8.56,0.38c0.13,0.04,0.26,0.08,0.39,0.12c1.62,0.51,3.09,1.23,4.38,2.13
				c1.27-2.42,2.68-4.73,4.22-6.91c3.01-4.26,6.48-7.78,10.32-10.44c4.6-3.2,9.61-4.84,14.92-4.89h0.18
				c5.92,0.05,10.68,1.79,14.15,5.17c3.52,3.42,5.39,7.98,5.42,13.19c0,0.48-0.01,0.97-0.04,1.46c0.92-0.12,1.84-0.17,2.76-0.16
				c5.48,0.02,9.11,1.96,11.36,3.86c0.78-0.57,1.58-1.09,2.4-1.55c3.07-1.75,6.33-2.63,9.68-2.63c4.55,0,7.8,1.45,9.92,2.92
				c0.14-0.07,0.27-0.14,0.41-0.21c3.25-1.62,6.61-2.42,9.94-2.39c6.23,0.02,10.07,2.53,12.2,4.63c2.21,2.18,3.74,4.9,4.52,7.97
				c0.35,0.2,0.69,0.41,1.02,0.64c0.01,0,0.02,0.01,0.02,0.01C273.01,41.61,274.67,46.98,272.83,52z"/>
		</g>
	</g>
	<g>
		<g>
			<g>
				<path class="st1" d="M72.63,24.66c0.41-1.06,0.44-2.22,0.1-3.49c-0.34-1.27-1.07-2.31-2.19-3.11c-1.12-0.8-2.63-1.04-4.53-0.71
					c0.03,0.81-0.9,2.69-2.78,5.63c-1.88,2.94-4.21,6.33-6.99,10.17c-2.78,3.85-5.5,7.57-8.18,11.17c-1.22,1.68-2.36,3.22-3.41,4.63
					c0.19-1.87,0.45-3.89,0.77-6.05c0.41-2.57,0.73-5.2,0.97-7.88s0.22-5.27-0.08-7.76c-0.3-2.49-1.06-4.72-2.29-6.68
					c-1.23-1.96-3.12-3.5-5.67-4.61c-2.22-0.89-4.58-0.99-7.09-0.28c-2.5,0.7-4.94,1.94-7.31,3.7c-2.37,1.76-4.46,3.77-6.28,6.03
					c-1.81,2.26-3.14,4.53-3.98,6.8c-0.38,1.14-0.41,2.21-0.08,3.21c0.32,1,0.93,1.79,1.83,2.36c0.89,0.57,1.99,0.77,3.29,0.61
					c-0.16-1.95,0.29-4.02,1.36-6.21c1.07-2.19,2.48-4.27,4.24-6.23s3.55-3.55,5.38-4.77c1.83-1.22,3.41-1.83,4.75-1.83
					c1.34,0,2.15,0.86,2.42,2.58c0.27,1.72-0.28,4.56-1.67,8.51c-1.9,5.15-3.82,10.02-5.77,14.62c-1.49,3.52-2.92,7.07-4.31,10.64
					c-1.38,3.57-2.65,7.34-3.82,11.29c-0.6,2.25-0.55,3.87,0.14,4.85c0.69,0.99,1.62,1.48,2.78,1.48c1.16,0,2.18-0.37,3.05-1.1
					c-0.27-1.68-0.1-3.74,0.53-6.19c0.62-2.45,1.47-5.01,2.54-7.68c1.07-2.67,2.12-5.18,3.15-7.54c0.7-1.62,1.31-3.07,1.83-4.35
					c0.76-1.87,1.45-3.55,2.07-5.04c0.84-1.98,1.73-4.2,2.68-6.66c-0.41,3.76-0.89,7.41-1.46,10.93c-0.43,2.79-0.81,5.44-1.12,7.96
					c-0.31,2.52-0.44,4.83-0.39,6.95c-0.05,0.89,0.16,1.58,0.63,2.05c0.47,0.47,1.09,0.81,1.85,1c0.76,0.19,1.52,0.28,2.29,0.26
					c0.77-0.01,1.41-0.07,1.93-0.18c0.51-0.11,0.77-0.19,0.77-0.24c-0.24-0.92-0.26-1.74-0.06-2.46c0.2-0.72,0.67-1.62,1.4-2.7
					c0.81-1.19,1.68-2.38,2.6-3.57c0.65-0.87,1.15-1.56,1.5-2.07c1.52-2.22,2.99-4.29,4.43-6.21c1.87-2.44,3.82-5.23,5.85-8.37
					c-0.92,2.36-1.81,4.63-2.68,6.82c-1.44,3.6-2.79,7.18-4.06,10.72c-1.27,3.55-2.44,7.33-3.49,11.33
					c-0.51,2.25-0.41,3.87,0.3,4.85c0.72,0.99,1.66,1.48,2.82,1.48c1.16,0,2.17-0.37,3.01-1.1c-0.24-1.25-0.25-2.55-0.02-3.92
					c0.23-1.37,0.63-3.05,1.2-5.06c0.08-0.3,0.16-0.62,0.24-0.97c0.7-2.38,1.54-4.74,2.52-7.07c1.14-2.84,2.56-6.38,4.29-10.62
					c1.72-4.24,3.36-8.25,4.92-12.02C70.92,28.79,72.01,26.15,72.63,24.66z"/>
			</g>
			<g>
				<path class="st1" d="M262.73,47.25c-0.35-0.24-0.79-0.29-1.32-0.14c-0.53,0.15-0.98,0.58-1.36,1.28
					c-0.65,1.33-1.4,2.37-2.23,3.13c-0.84,0.76-1.69,1.31-2.56,1.67c0.87-1.9,1.54-3.85,2.01-5.87c0.47-2.02,0.62-3.89,0.43-5.63
					c-0.19-1.73-0.83-3.13-1.91-4.2c-1.08-1.07-2.72-1.6-4.92-1.6c-1.68-0.03-3.4,0.4-5.16,1.28c-1.76,0.88-3.47,2.43-5.14,4.65
					c-1.06,1.41-2.06,3.19-2.99,5.31c-0.36,0.29-0.72,0.75-1.09,1.39c-0.38,0.71-0.77,1.46-1.18,2.28c-0.7,1.44-1.49,2.88-2.36,4.35
					c-0.87,1.46-1.88,2.74-3.05,3.82c-2.25,1.92-4.22,2.8-5.93,2.64c-1.71-0.16-2.87-1.16-3.49-3.01c-0.62-1.84-0.43-4.28,0.57-7.31
					c0.65-1.81,1.56-3.68,2.74-5.61c1.18-1.92,2.44-3.49,3.8-4.71c1.35-1.22,2.6-1.69,3.74-1.42c0.68,0.24,0.99,0.67,0.93,1.28
					s-0.32,1.28-0.79,2.01s-1,1.4-1.58,1.99c-0.58,0.6-1.08,1.02-1.48,1.26c0.19,0.68,0.73,1.28,1.63,1.81
					c0.89,0.53,1.91,0.58,3.05,0.16c1.14-0.42,2.19-1.67,3.17-3.76c0.62-1.49,0.82-2.89,0.59-4.2c-0.23-1.31-0.87-2.4-1.91-3.25
					c-1.04-0.85-2.46-1.28-4.25-1.28c-1.52,0-3.01,0.42-4.49,1.26c-1.48,0.84-2.9,1.98-4.26,3.43c-1.37,1.45-2.61,3.11-3.74,4.98
					c-0.48,0.8-0.92,1.62-1.35,2.46c-0.18,0.19-0.35,0.42-0.5,0.71c-0.65,1.33-1.4,2.37-2.23,3.13c-0.84,0.76-1.69,1.31-2.56,1.67
					c0.87-1.9,1.54-3.85,2.01-5.87c0.47-2.02,0.62-3.89,0.43-5.63c-0.19-1.73-0.83-3.13-1.91-4.2c-1.08-1.07-2.72-1.6-4.92-1.6
					c-1.68-0.03-3.4,0.4-5.16,1.28c-1.76,0.88-3.47,2.43-5.14,4.65c-1.13,1.51-2.19,3.44-3.18,5.76c-0.18,0.24-0.36,0.5-0.54,0.82
					c-2.25,4.33-4.64,7.94-7.17,10.83c-2.53,2.88-5.02,4.98-7.45,6.3c-2.44,1.31-4.63,1.81-6.58,1.48
					c-2.55-0.49-4.29-1.94-5.24-4.35c-0.95-2.41-1.27-5.37-0.95-8.88c0.31-3.51,1.1-7.19,2.38-11.05c1.27-3.86,2.85-7.5,4.73-10.93
					c1.88-3.43,3.92-6.25,6.11-8.47c2.19-2.22,4.36-3.44,6.5-3.66c1.68-0.08,2.69,0.56,3.05,1.91c0.35,1.35,0.23,3.08-0.37,5.18
					c-0.6,2.1-1.49,4.22-2.68,6.36c-1.19,2.14-2.49,3.95-3.9,5.44c-1.41,1.49-2.75,2.3-4.02,2.44c0.22,1.65,0.82,2.78,1.81,3.37
					c0.99,0.6,2.15,0.63,3.49,0.1c1.34-0.53,2.67-1.67,4-3.43c2.27-3.03,4.04-6.01,5.3-8.94c1.26-2.92,1.88-5.58,1.87-7.96
					c-0.01-2.38-0.76-4.29-2.23-5.73c-1.48-1.43-3.78-2.17-6.92-2.19c-3.17,0.03-6.17,1.03-9.02,3.01c-2.84,1.98-5.42,4.6-7.74,7.88
					c-2.31,3.28-4.26,6.88-5.83,10.82c-1.17,2.93-2.07,5.85-2.71,8.79c-0.18-0.01-0.38,0.03-0.62,0.13
					c-0.51,0.22-1.06,0.77-1.63,1.66c-0.46,0.84-0.95,1.75-1.46,2.72c-0.87,1.73-1.83,3.43-2.9,5.1c-1.07,1.67-2.31,2.97-3.72,3.92
					c-1.38,0.84-2.34,0.89-2.86,0.16c-0.53-0.73-0.4-2.36,0.39-4.88c0.33-0.97,0.74-2.14,1.26-3.49c0.62-1.52,1.22-3.11,1.79-4.79
					c0.57-1.68,0.96-3.3,1.18-4.87c0.22-1.57,0.1-2.94-0.34-4.1c-0.45-1.16-1.4-1.98-2.86-2.44c-1.49-0.41-2.97-0.43-4.45-0.06
					c-1.48,0.37-2.73,1.01-3.76,1.93c0.24-0.92,0.09-1.61-0.45-2.07c-0.54-0.46-1.3-0.7-2.27-0.71c-0.98-0.01-1.98,0.18-3.01,0.57
					c-1.03,0.39-1.88,0.98-2.56,1.77c0.51,0.19,0.75,0.64,0.71,1.34s-0.28,1.6-0.71,2.68c-0.87,2.25-1.67,4.27-2.4,6.05
					c-0.01,0.03-0.03,0.06-0.04,0.1c-0.28,0.22-0.54,0.53-0.77,0.96c-0.65,1.33-1.4,2.37-2.23,3.13s-1.69,1.31-2.56,1.67
					c0.87-1.9,1.54-3.85,2.01-5.87c0.47-2.02,0.62-3.89,0.43-5.63c-0.19-1.73-0.83-3.13-1.91-4.2c-1.08-1.07-2.72-1.6-4.92-1.6
					c-1.68-0.03-3.4,0.4-5.16,1.28c-1.76,0.88-3.47,2.43-5.14,4.65c-1.09,1.46-2.12,3.3-3.07,5.51c-0.3,0.29-0.59,0.68-0.89,1.19
					c-0.54,1.03-1.08,2.09-1.62,3.17c-0.73,1.57-1.52,3.07-2.36,4.51c-1.3,2.03-2.6,3.43-3.9,4.18c-1.3,0.76-2.29,0.76-2.97,0
					c-0.68-0.76-0.7-2.37-0.08-4.83c0.81-2.84,2.19-6.53,4.12-11.05c1.94-4.52,3.78-8.73,5.54-12.63c1.16-2.57,2.04-4.55,2.64-5.93
					c0.6-1.52,0.72-2.75,0.37-3.7c-0.35-0.95-0.98-1.61-1.89-1.99c-0.91-0.38-1.9-0.47-2.99-0.26c-1.08,0.2-2.06,0.71-2.92,1.52
					c0.51,0.19,0.77,0.64,0.77,1.34c0,0.7-0.2,1.6-0.61,2.68c-0.92,2.65-2.17,5.9-3.74,9.75c-1.38,3.44-2.73,6.91-4.04,10.42
					c-0.56,1.51-1.07,2.93-1.53,4.3c-0.67,1.23-1.46,2.55-2.39,3.95c-1.33,1.99-2.75,3.65-4.27,4.98c-2.71,2.22-4.87,2.96-6.48,2.23
					c-1.61-0.73-2.35-2.71-2.21-5.93c1.68-0.65,3.46-1.51,5.34-2.58c1.88-1.07,3.61-2.32,5.18-3.76c1.57-1.44,2.73-3.02,3.49-4.75
					c0.46-1.06,0.72-2.09,0.79-3.11c0.07-1.02-0.09-1.94-0.47-2.76c-0.38-0.83-1.01-1.49-1.89-1.99c-0.88-0.5-2.05-0.75-3.51-0.75
					c-1.52,0-2.98,0.42-4.39,1.26c-1.41,0.84-2.74,1.98-3.98,3.43c-1.25,1.45-2.36,3.11-3.35,4.98c-0.99,1.87-1.79,3.86-2.42,5.97
					c-0.98,3.3-1.2,6.04-0.67,8.21c0.53,2.17,1.56,3.76,3.09,4.79c1.53,1.03,3.31,1.48,5.34,1.34c1.49-0.11,2.85-0.45,4.08-1.04
					c1.23-0.58,2.34-1.35,3.31-2.29c1.13-1.05,2.22-2.24,3.26-3.54c-0.09,1.76,0.17,3.17,0.8,4.25c1,1.72,2.49,2.6,4.47,2.64
					c1.98,0.04,4.02-0.72,6.13-2.29c1.03-0.81,2.12-2.13,3.27-3.96c0.34-0.54,0.66-1.11,0.99-1.67c0.02,0.82,0.11,1.6,0.29,2.32
					c0.6,2.4,1.76,4.06,3.49,5c1.73,0.93,3.77,0.94,6.11,0.02c2.34-0.92,4.7-2.96,7.09-6.13c1.92-0.54,3.82-1.57,5.71-3.07
					c-0.47,1.37-0.94,2.87-1.44,4.53c-0.6,2.22-0.55,3.83,0.14,4.81c0.69,0.99,1.62,1.48,2.78,1.48c1.16,0,2.18-0.35,3.05-1.06
					c-0.24-1.3-0.21-2.67,0.1-4.12c0.31-1.45,0.81-3.26,1.48-5.42c0.03-0.13,0.07-0.27,0.12-0.41c0.24-0.84,0.65-1.98,1.22-3.43
					c0.57-1.45,1.33-3.09,2.27-4.94c0.79-1.49,1.66-2.88,2.62-4.18c0.96-1.3,1.93-2.34,2.9-3.11c0.97-0.77,1.88-1.1,2.72-1
					c0.89,0.22,1.31,0.93,1.26,2.13c-0.05,1.21-0.37,2.66-0.95,4.37c-0.58,1.71-1.23,3.41-1.93,5.12c-0.43,1.06-0.81,2.03-1.14,2.92
					c-0.87,1.98-1.37,3.87-1.5,5.69c-0.14,1.81,0.24,3.31,1.12,4.49c0.88,1.18,2.46,1.81,4.73,1.89c1.79-0.03,3.47-0.64,5.04-1.85
					c1.57-1.2,2.99-2.72,4.26-4.55c1.27-1.83,2.38-3.7,3.31-5.63c0.34-0.71,0.66-1.37,0.95-2.02c-0.39,3.31-0.38,6.41,0.08,9.27
					c0.54,3.34,1.77,6.07,3.68,8.16s4.62,3.26,8.14,3.47c2.52,0.11,5.26-0.69,8.22-2.4c2.97-1.71,5.94-4.35,8.94-7.94
					c1.16-1.39,2.28-2.92,3.38-4.6c0.01,0.88,0.1,1.71,0.3,2.48c0.6,2.4,1.76,4.06,3.49,5c1.73,0.93,3.77,0.94,6.11,0.02
					c2.34-0.92,4.71-2.96,7.09-6.13c2-0.56,3.97-1.64,5.93-3.24c-0.18,1.42-0.13,2.7,0.16,3.82c0.57,2.18,1.68,3.78,3.33,4.81
					c1.65,1.03,3.51,1.48,5.56,1.34c1.49-0.11,2.88-0.45,4.16-1.04c1.29-0.58,2.46-1.35,3.51-2.29c1.54-1.4,2.89-3,4.05-4.79
					c0.01,0.89,0.1,1.72,0.3,2.5c0.6,2.4,1.76,4.06,3.49,5c1.73,0.93,3.77,0.94,6.11,0.02c2.34-0.92,4.71-2.96,7.09-6.13
					c2.03-0.57,4.04-1.67,6.03-3.31c1.99-1.64,3.66-4,5.02-7.09C263.16,47.87,263.08,47.49,262.73,47.25z M78.52,43.74
					c1.19-1.58,2.31-2.62,3.35-3.11s1.85-0.57,2.42-0.24c0.6,0.38,0.76,1.08,0.49,2.09c-0.27,1.02-1.16,2.22-2.68,3.62
					c-1.52,1.4-3.83,2.84-6.95,4.33C76.21,47.55,77.33,45.32,78.52,43.74z M121.32,46.09c-0.39,1.58-0.9,3.11-1.52,4.59
					c-0.62,1.48-1.16,2.65-1.62,3.51c-2.44,0.22-3.91,0.84-4.43,1.87c-0.35,0.62-0.46,1.25-0.33,1.89c0.14,0.64,0.46,1.09,0.98,1.36
					c-1.41,1.27-2.65,1.88-3.74,1.81c-1.08-0.07-1.74-0.9-1.97-2.5c-0.23-1.6,0.21-4.06,1.32-7.39c0.24-0.76,0.66-1.8,1.26-3.13
					c0.6-1.33,1.32-2.67,2.17-4.04c0.85-1.37,1.79-2.48,2.82-3.33c1.03-0.85,2.11-1.18,3.25-1c1.19,0.27,1.89,1,2.09,2.19
					C121.8,43.12,121.71,44.51,121.32,46.09z M209.58,46.09c-0.39,1.58-0.9,3.11-1.52,4.59c-0.62,1.48-1.17,2.65-1.63,3.51
					c-2.44,0.22-3.91,0.84-4.43,1.87c-0.35,0.62-0.46,1.25-0.32,1.89c0.13,0.64,0.46,1.09,0.97,1.36c-1.41,1.27-2.65,1.88-3.74,1.81
					c-1.08-0.07-1.74-0.9-1.97-2.5c-0.23-1.6,0.21-4.06,1.32-7.39c0.24-0.76,0.66-1.8,1.26-3.13c0.6-1.33,1.32-2.67,2.17-4.04
					c0.85-1.37,1.79-2.48,2.82-3.33s2.11-1.18,3.25-1c1.19,0.27,1.89,1,2.09,2.19C210.07,43.12,209.97,44.51,209.58,46.09z
					 M253.28,46.09c-0.39,1.58-0.9,3.11-1.52,4.59c-0.62,1.48-1.17,2.65-1.63,3.51c-2.44,0.22-3.91,0.84-4.43,1.87
					c-0.35,0.62-0.46,1.25-0.32,1.89c0.13,0.64,0.46,1.09,0.97,1.36c-1.41,1.27-2.65,1.88-3.74,1.81c-1.08-0.07-1.74-0.9-1.97-2.5
					c-0.23-1.6,0.21-4.06,1.32-7.39c0.24-0.76,0.66-1.8,1.26-3.13c0.6-1.33,1.32-2.67,2.17-4.04c0.85-1.37,1.79-2.48,2.82-3.33
					s2.11-1.18,3.25-1c1.19,0.27,1.89,1,2.09,2.19C253.77,43.12,253.68,44.51,253.28,46.09z"/>
			</g>
		</g>
		<g>
			<g>
				<path class="st1" d="M72.63,24.66c0.41-1.06,0.44-2.22,0.1-3.49c-0.34-1.27-1.07-2.31-2.19-3.11c-1.12-0.8-2.63-1.04-4.53-0.71
					c0.03,0.81-0.9,2.69-2.78,5.63c-1.88,2.94-4.21,6.33-6.99,10.17c-2.78,3.85-5.5,7.57-8.18,11.17c-1.22,1.68-2.36,3.22-3.41,4.63
					c0.19-1.87,0.45-3.89,0.77-6.05c0.41-2.57,0.73-5.2,0.97-7.88s0.22-5.27-0.08-7.76c-0.3-2.49-1.06-4.72-2.29-6.68
					c-1.23-1.96-3.12-3.5-5.67-4.61c-2.22-0.89-4.58-0.99-7.09-0.28c-2.5,0.7-4.94,1.94-7.31,3.7c-2.37,1.76-4.46,3.77-6.28,6.03
					c-1.81,2.26-3.14,4.53-3.98,6.8c-0.38,1.14-0.41,2.21-0.08,3.21c0.32,1,0.93,1.79,1.83,2.36c0.89,0.57,1.99,0.77,3.29,0.61
					c-0.16-1.95,0.29-4.02,1.36-6.21c1.07-2.19,2.48-4.27,4.24-6.23s3.55-3.55,5.38-4.77c1.83-1.22,3.41-1.83,4.75-1.83
					c1.34,0,2.15,0.86,2.42,2.58c0.27,1.72-0.28,4.56-1.67,8.51c-1.9,5.15-3.82,10.02-5.77,14.62c-1.49,3.52-2.92,7.07-4.31,10.64
					c-1.38,3.57-2.65,7.34-3.82,11.29c-0.6,2.25-0.55,3.87,0.14,4.85c0.69,0.99,1.62,1.48,2.78,1.48c1.16,0,2.18-0.37,3.05-1.1
					c-0.27-1.68-0.1-3.74,0.53-6.19c0.62-2.45,1.47-5.01,2.54-7.68c1.07-2.67,2.12-5.18,3.15-7.54c0.7-1.62,1.31-3.07,1.83-4.35
					c0.76-1.87,1.45-3.55,2.07-5.04c0.84-1.98,1.73-4.2,2.68-6.66c-0.41,3.76-0.89,7.41-1.46,10.93c-0.43,2.79-0.81,5.44-1.12,7.96
					c-0.31,2.52-0.44,4.83-0.39,6.95c-0.05,0.89,0.16,1.58,0.63,2.05c0.47,0.47,1.09,0.81,1.85,1c0.76,0.19,1.52,0.28,2.29,0.26
					c0.77-0.01,1.41-0.07,1.93-0.18c0.51-0.11,0.77-0.19,0.77-0.24c-0.24-0.92-0.26-1.74-0.06-2.46c0.2-0.72,0.67-1.62,1.4-2.7
					c0.81-1.19,1.68-2.38,2.6-3.57c0.65-0.87,1.15-1.56,1.5-2.07c1.52-2.22,2.99-4.29,4.43-6.21c1.87-2.44,3.82-5.23,5.85-8.37
					c-0.92,2.36-1.81,4.63-2.68,6.82c-1.44,3.6-2.79,7.18-4.06,10.72c-1.27,3.55-2.44,7.33-3.49,11.33
					c-0.51,2.25-0.41,3.87,0.3,4.85c0.72,0.99,1.66,1.48,2.82,1.48c1.16,0,2.17-0.37,3.01-1.1c-0.24-1.25-0.25-2.55-0.02-3.92
					c0.23-1.37,0.63-3.05,1.2-5.06c0.08-0.3,0.16-0.62,0.24-0.97c0.7-2.38,1.54-4.74,2.52-7.07c1.14-2.84,2.56-6.38,4.29-10.62
					c1.72-4.24,3.36-8.25,4.92-12.02C70.92,28.79,72.01,26.15,72.63,24.66z"/>
			</g>
			<g>
				<path class="st1" d="M262.73,47.25c-0.35-0.24-0.79-0.29-1.32-0.14c-0.53,0.15-0.98,0.58-1.36,1.28
					c-0.65,1.33-1.4,2.37-2.23,3.13c-0.84,0.76-1.69,1.31-2.56,1.67c0.87-1.9,1.54-3.85,2.01-5.87c0.47-2.02,0.62-3.89,0.43-5.63
					c-0.19-1.73-0.83-3.13-1.91-4.2c-1.08-1.07-2.72-1.6-4.92-1.6c-1.68-0.03-3.4,0.4-5.16,1.28c-1.76,0.88-3.47,2.43-5.14,4.65
					c-1.06,1.41-2.06,3.19-2.99,5.31c-0.36,0.29-0.72,0.75-1.09,1.39c-0.38,0.71-0.77,1.46-1.18,2.28c-0.7,1.44-1.49,2.88-2.36,4.35
					c-0.87,1.46-1.88,2.74-3.05,3.82c-2.25,1.92-4.22,2.8-5.93,2.64c-1.71-0.16-2.87-1.16-3.49-3.01c-0.62-1.84-0.43-4.28,0.57-7.31
					c0.65-1.81,1.56-3.68,2.74-5.61c1.18-1.92,2.44-3.49,3.8-4.71c1.35-1.22,2.6-1.69,3.74-1.42c0.68,0.24,0.99,0.67,0.93,1.28
					s-0.32,1.28-0.79,2.01s-1,1.4-1.58,1.99c-0.58,0.6-1.08,1.02-1.48,1.26c0.19,0.68,0.73,1.28,1.63,1.81
					c0.89,0.53,1.91,0.58,3.05,0.16c1.14-0.42,2.19-1.67,3.17-3.76c0.62-1.49,0.82-2.89,0.59-4.2c-0.23-1.31-0.87-2.4-1.91-3.25
					c-1.04-0.85-2.46-1.28-4.25-1.28c-1.52,0-3.01,0.42-4.49,1.26c-1.48,0.84-2.9,1.98-4.26,3.43c-1.37,1.45-2.61,3.11-3.74,4.98
					c-0.48,0.8-0.92,1.62-1.35,2.46c-0.18,0.19-0.35,0.42-0.5,0.71c-0.65,1.33-1.4,2.37-2.23,3.13c-0.84,0.76-1.69,1.31-2.56,1.67
					c0.87-1.9,1.54-3.85,2.01-5.87c0.47-2.02,0.62-3.89,0.43-5.63c-0.19-1.73-0.83-3.13-1.91-4.2c-1.08-1.07-2.72-1.6-4.92-1.6
					c-1.68-0.03-3.4,0.4-5.16,1.28c-1.76,0.88-3.47,2.43-5.14,4.65c-1.13,1.51-2.19,3.44-3.18,5.76c-0.18,0.24-0.36,0.5-0.54,0.82
					c-2.25,4.33-4.64,7.94-7.17,10.83c-2.53,2.88-5.02,4.98-7.45,6.3c-2.44,1.31-4.63,1.81-6.58,1.48
					c-2.55-0.49-4.29-1.94-5.24-4.35c-0.95-2.41-1.27-5.37-0.95-8.88c0.31-3.51,1.1-7.19,2.38-11.05c1.27-3.86,2.85-7.5,4.73-10.93
					c1.88-3.43,3.92-6.25,6.11-8.47c2.19-2.22,4.36-3.44,6.5-3.66c1.68-0.08,2.69,0.56,3.05,1.91c0.35,1.35,0.23,3.08-0.37,5.18
					c-0.6,2.1-1.49,4.22-2.68,6.36c-1.19,2.14-2.49,3.95-3.9,5.44c-1.41,1.49-2.75,2.3-4.02,2.44c0.22,1.65,0.82,2.78,1.81,3.37
					c0.99,0.6,2.15,0.63,3.49,0.1c1.34-0.53,2.67-1.67,4-3.43c2.27-3.03,4.04-6.01,5.3-8.94c1.26-2.92,1.88-5.58,1.87-7.96
					c-0.01-2.38-0.76-4.29-2.23-5.73c-1.48-1.43-3.78-2.17-6.92-2.19c-3.17,0.03-6.17,1.03-9.02,3.01c-2.84,1.98-5.42,4.6-7.74,7.88
					c-2.31,3.28-4.26,6.88-5.83,10.82c-1.17,2.93-2.07,5.85-2.71,8.79c-0.18-0.01-0.38,0.03-0.62,0.13
					c-0.51,0.22-1.06,0.77-1.63,1.66c-0.46,0.84-0.95,1.75-1.46,2.72c-0.87,1.73-1.83,3.43-2.9,5.1c-1.07,1.67-2.31,2.97-3.72,3.92
					c-1.38,0.84-2.34,0.89-2.86,0.16c-0.53-0.73-0.4-2.36,0.39-4.88c0.33-0.97,0.74-2.14,1.26-3.49c0.62-1.52,1.22-3.11,1.79-4.79
					c0.57-1.68,0.96-3.3,1.18-4.87c0.22-1.57,0.1-2.94-0.34-4.1c-0.45-1.16-1.4-1.98-2.86-2.44c-1.49-0.41-2.97-0.43-4.45-0.06
					c-1.48,0.37-2.73,1.01-3.76,1.93c0.24-0.92,0.09-1.61-0.45-2.07c-0.54-0.46-1.3-0.7-2.27-0.71c-0.98-0.01-1.98,0.18-3.01,0.57
					c-1.03,0.39-1.88,0.98-2.56,1.77c0.51,0.19,0.75,0.64,0.71,1.34s-0.28,1.6-0.71,2.68c-0.87,2.25-1.67,4.27-2.4,6.05
					c-0.01,0.03-0.03,0.06-0.04,0.1c-0.28,0.22-0.54,0.53-0.77,0.96c-0.65,1.33-1.4,2.37-2.23,3.13s-1.69,1.31-2.56,1.67
					c0.87-1.9,1.54-3.85,2.01-5.87c0.47-2.02,0.62-3.89,0.43-5.63c-0.19-1.73-0.83-3.13-1.91-4.2c-1.08-1.07-2.72-1.6-4.92-1.6
					c-1.68-0.03-3.4,0.4-5.16,1.28c-1.76,0.88-3.47,2.43-5.14,4.65c-1.09,1.46-2.12,3.3-3.07,5.51c-0.3,0.29-0.59,0.68-0.89,1.19
					c-0.54,1.03-1.08,2.09-1.62,3.17c-0.73,1.57-1.52,3.07-2.36,4.51c-1.3,2.03-2.6,3.43-3.9,4.18c-1.3,0.76-2.29,0.76-2.97,0
					c-0.68-0.76-0.7-2.37-0.08-4.83c0.81-2.84,2.19-6.53,4.12-11.05c1.94-4.52,3.78-8.73,5.54-12.63c1.16-2.57,2.04-4.55,2.64-5.93
					c0.6-1.52,0.72-2.75,0.37-3.7c-0.35-0.95-0.98-1.61-1.89-1.99c-0.91-0.38-1.9-0.47-2.99-0.26c-1.08,0.2-2.06,0.71-2.92,1.52
					c0.51,0.19,0.77,0.64,0.77,1.34c0,0.7-0.2,1.6-0.61,2.68c-0.92,2.65-2.17,5.9-3.74,9.75c-1.38,3.44-2.73,6.91-4.04,10.42
					c-0.56,1.51-1.07,2.93-1.53,4.3c-0.67,1.23-1.46,2.55-2.39,3.95c-1.33,1.99-2.75,3.65-4.27,4.98c-2.71,2.22-4.87,2.96-6.48,2.23
					c-1.61-0.73-2.35-2.71-2.21-5.93c1.68-0.65,3.46-1.51,5.34-2.58c1.88-1.07,3.61-2.32,5.18-3.76c1.57-1.44,2.73-3.02,3.49-4.75
					c0.46-1.06,0.72-2.09,0.79-3.11c0.07-1.02-0.09-1.94-0.47-2.76c-0.38-0.83-1.01-1.49-1.89-1.99c-0.88-0.5-2.05-0.75-3.51-0.75
					c-1.52,0-2.98,0.42-4.39,1.26c-1.41,0.84-2.74,1.98-3.98,3.43c-1.25,1.45-2.36,3.11-3.35,4.98c-0.99,1.87-1.79,3.86-2.42,5.97
					c-0.98,3.3-1.2,6.04-0.67,8.21c0.53,2.17,1.56,3.76,3.09,4.79c1.53,1.03,3.31,1.48,5.34,1.34c1.49-0.11,2.85-0.45,4.08-1.04
					c1.23-0.58,2.34-1.35,3.31-2.29c1.13-1.05,2.22-2.24,3.26-3.54c-0.09,1.76,0.17,3.17,0.8,4.25c1,1.72,2.49,2.6,4.47,2.64
					c1.98,0.04,4.02-0.72,6.13-2.29c1.03-0.81,2.12-2.13,3.27-3.96c0.34-0.54,0.66-1.11,0.99-1.67c0.02,0.82,0.11,1.6,0.29,2.32
					c0.6,2.4,1.76,4.06,3.49,5c1.73,0.93,3.77,0.94,6.11,0.02c2.34-0.92,4.7-2.96,7.09-6.13c1.92-0.54,3.82-1.57,5.71-3.07
					c-0.47,1.37-0.94,2.87-1.44,4.53c-0.6,2.22-0.55,3.83,0.14,4.81c0.69,0.99,1.62,1.48,2.78,1.48c1.16,0,2.18-0.35,3.05-1.06
					c-0.24-1.3-0.21-2.67,0.1-4.12c0.31-1.45,0.81-3.26,1.48-5.42c0.03-0.13,0.07-0.27,0.12-0.41c0.24-0.84,0.65-1.98,1.22-3.43
					c0.57-1.45,1.33-3.09,2.27-4.94c0.79-1.49,1.66-2.88,2.62-4.18c0.96-1.3,1.93-2.34,2.9-3.11c0.97-0.77,1.88-1.1,2.72-1
					c0.89,0.22,1.31,0.93,1.26,2.13c-0.05,1.21-0.37,2.66-0.95,4.37c-0.58,1.71-1.23,3.41-1.93,5.12c-0.43,1.06-0.81,2.03-1.14,2.92
					c-0.87,1.98-1.37,3.87-1.5,5.69c-0.14,1.81,0.24,3.31,1.12,4.49c0.88,1.18,2.46,1.81,4.73,1.89c1.79-0.03,3.47-0.64,5.04-1.85
					c1.57-1.2,2.99-2.72,4.26-4.55c1.27-1.83,2.38-3.7,3.31-5.63c0.34-0.71,0.66-1.37,0.95-2.02c-0.39,3.31-0.38,6.41,0.08,9.27
					c0.54,3.34,1.77,6.07,3.68,8.16s4.62,3.26,8.14,3.47c2.52,0.11,5.26-0.69,8.22-2.4c2.97-1.71,5.94-4.35,8.94-7.94
					c1.16-1.39,2.28-2.92,3.38-4.6c0.01,0.88,0.1,1.71,0.3,2.48c0.6,2.4,1.76,4.06,3.49,5c1.73,0.93,3.77,0.94,6.11,0.02
					c2.34-0.92,4.71-2.96,7.09-6.13c2-0.56,3.97-1.64,5.93-3.24c-0.18,1.42-0.13,2.7,0.16,3.82c0.57,2.18,1.68,3.78,3.33,4.81
					c1.65,1.03,3.51,1.48,5.56,1.34c1.49-0.11,2.88-0.45,4.16-1.04c1.29-0.58,2.46-1.35,3.51-2.29c1.54-1.4,2.89-3,4.05-4.79
					c0.01,0.89,0.1,1.72,0.3,2.5c0.6,2.4,1.76,4.06,3.49,5c1.73,0.93,3.77,0.94,6.11,0.02c2.34-0.92,4.71-2.96,7.09-6.13
					c2.03-0.57,4.04-1.67,6.03-3.31c1.99-1.64,3.66-4,5.02-7.09C263.16,47.87,263.08,47.49,262.73,47.25z M78.52,43.74
					c1.19-1.58,2.31-2.62,3.35-3.11s1.85-0.57,2.42-0.24c0.6,0.38,0.76,1.08,0.49,2.09c-0.27,1.02-1.16,2.22-2.68,3.62
					c-1.52,1.4-3.83,2.84-6.95,4.33C76.21,47.55,77.33,45.32,78.52,43.74z M121.32,46.09c-0.39,1.58-0.9,3.11-1.52,4.59
					c-0.62,1.48-1.16,2.65-1.62,3.51c-2.44,0.22-3.91,0.84-4.43,1.87c-0.35,0.62-0.46,1.25-0.33,1.89c0.14,0.64,0.46,1.09,0.98,1.36
					c-1.41,1.27-2.65,1.88-3.74,1.81c-1.08-0.07-1.74-0.9-1.97-2.5c-0.23-1.6,0.21-4.06,1.32-7.39c0.24-0.76,0.66-1.8,1.26-3.13
					c0.6-1.33,1.32-2.67,2.17-4.04c0.85-1.37,1.79-2.48,2.82-3.33c1.03-0.85,2.11-1.18,3.25-1c1.19,0.27,1.89,1,2.09,2.19
					C121.8,43.12,121.71,44.51,121.32,46.09z M209.58,46.09c-0.39,1.58-0.9,3.11-1.52,4.59c-0.62,1.48-1.17,2.65-1.63,3.51
					c-2.44,0.22-3.91,0.84-4.43,1.87c-0.35,0.62-0.46,1.25-0.32,1.89c0.13,0.64,0.46,1.09,0.97,1.36c-1.41,1.27-2.65,1.88-3.74,1.81
					c-1.08-0.07-1.74-0.9-1.97-2.5c-0.23-1.6,0.21-4.06,1.32-7.39c0.24-0.76,0.66-1.8,1.26-3.13c0.6-1.33,1.32-2.67,2.17-4.04
					c0.85-1.37,1.79-2.48,2.82-3.33s2.11-1.18,3.25-1c1.19,0.27,1.89,1,2.09,2.19C210.07,43.12,209.97,44.51,209.58,46.09z
					 M253.28,46.09c-0.39,1.58-0.9,3.11-1.52,4.59c-0.62,1.48-1.17,2.65-1.63,3.51c-2.44,0.22-3.91,0.84-4.43,1.87
					c-0.35,0.62-0.46,1.25-0.32,1.89c0.13,0.64,0.46,1.09,0.97,1.36c-1.41,1.27-2.65,1.88-3.74,1.81c-1.08-0.07-1.74-0.9-1.97-2.5
					c-0.23-1.6,0.21-4.06,1.32-7.39c0.24-0.76,0.66-1.8,1.26-3.13c0.6-1.33,1.32-2.67,2.17-4.04c0.85-1.37,1.79-2.48,2.82-3.33
					s2.11-1.18,3.25-1c1.19,0.27,1.89,1,2.09,2.19C253.77,43.12,253.68,44.51,253.28,46.09z"/>
			</g>
		</g>
	</g>
</g>
</svg>
