<?xml version="1.0" encoding="utf-8"?>
<!-- Generator: Adobe Illustrator 24.0.0, SVG Export Plug-In . SVG Version: 6.00 Build 0)  -->
<svg version="1.1" id="Layer_1" xmlns="http://www.w3.org/2000/svg" xmlns:xlink="http://www.w3.org/1999/xlink" x="0px" y="0px"
	 viewBox="0 0 2969 580.5" style="enable-background:new 0 0 2969 580.5;" xml:space="preserve">
<style type="text/css">
	.st0{fill:none;}
	.st1{fill-rule:evenodd;clip-rule:evenodd;fill:#595A5C;}
	.st2{fill-rule:evenodd;clip-rule:evenodd;fill:#F67615;}
	.st3{fill-rule:evenodd;clip-rule:evenodd;fill:#5A5B5D;}
	.st4{fill-rule:evenodd;clip-rule:evenodd;fill:#5B5C5E;}
	.st5{fill-rule:evenodd;clip-rule:evenodd;fill:#5A5A5C;}
</style>
<g>
	<path class="st0" d="M696.2,406.7c-2.6-0.5-5.3-1-7.9-1.6c-27.3-6.2-54.7-12.4-82-18.5c-1.3-0.3-2.7-1-4.2,0.2c0,0.7-0.1,1.5,0,2.3
		c6.9,30.8,13.9,61.5,20.9,92.3c0.1,0.5,0.5,1,1,1.8c3-1.8,5-4.5,7.3-6.7c2.5-2.3,4.7-5.1,7.9-7.3c2.8,2.7,5.5,5.2,8.2,7.8
		c15,14.5,29.8,29.1,46.2,42.1c43,34,91.8,54,146.2,59.9c16.6,1.8,33.3,2,50,0.7c16.5-1.3,32.8-3.8,48.8-7.7
		c48.7-12.1,91.3-35.4,127.5-70.1c36.4-34.9,61.4-76.7,75.5-125.1c5.6-19.5,9.2-39.3,10.2-59.6c1.4-26.7-1.3-53.1-7.4-79.2
		c-14.9-63.2-47.5-115.6-97.4-156.9c-49.8-41.2-107.8-61-172-63.5c-16.9-0.7-33.8,0.7-50.6,3.2c-28.8,4.3-56.1,13-82.3,25.8
		c-22.2,10.8-42.2,25-61.5,40.3c-24.9,19.8-48.2,41.4-70.9,63.7c-26.6,26.2-53.2,52.5-79.8,78.7c-4.1,4-8.5,7.9-12.7,11.8
		c-0.3,0.3-0.7,0.3-2,0.8c-0.9-1.2-2-2.7-3.2-4c-11.3-12.4-22.5-24.7-33.8-37c-19.4-21.1-39.3-41.7-60.5-61.1
		c-7.9-7.2-16.1-14.1-25-20.2c-32.5-22-68.4-33.3-107.6-33.6c-12.6-0.1-25.1,1.2-37.5,3.6c-41.2,8.1-76.9,26.7-106.1,57.1
		c-31,32.2-48.6,70.8-52.8,115.3c-1.7,18.3-1.2,36.7,2,54.9c4.3,24,12.6,46.5,25.5,67.2c30.2,48.2,84,85.9,147,91.8
		c16.1,1.5,32.1,1.6,48.1-0.6c26.9-3.8,52.1-12.6,75-27.2c10.1-6.4,19.8-13.4,29.3-20.7c20.7-15.7,39.9-33.4,58.4-51.6
		c16.9-16.7,33.5-33.6,50.3-50.4c9.5-9.5,19.1-18.9,28.6-28.3c2.6-2.6,5.1-5.4,7.8-8c7.8-7.6,15.8-15.1,23.6-22.8
		c18.4-18.1,36.9-36,55-54.4c14.9-15.1,30.1-30,45.9-44.2c19.6-17.7,39.8-34.6,61.7-49.6c33.9-23.2,71.6-35.2,112.4-37.2
		c20.9-1.1,41.6,1,62,6c42.8,10.5,79.6,31.7,109.4,64.1c31.8,34.6,50.4,75.5,55.9,122.3c2.7,23.3,2,46.6-3.1,69.5
		c-12.2,55.8-41.7,100.5-88.2,133.6c-36.1,25.8-76.6,38.7-120.9,39.8c-16.6,0.4-32.9-1.3-49.2-4.6c-32-6.6-61.2-19.4-87.2-39.4
		c-18.7-14.4-35.4-30.9-52.1-47.5c-0.4-0.4-0.5-1.1-0.7-1.7c4.3-4.5,8.6-8.9,12.9-13.4c1.7,1.4,3.6,2.7,5.2,4.3
		c11.9,12.1,24.2,23.6,37.3,34.4c32.4,26.9,69.5,42.3,111.6,45.3c18.8,1.3,37.5-0.2,56-4.2c77.4-16.9,144.6-82.8,152.5-171.7
		c1.8-19.9,1.2-39.6-3.2-59.1c-13.3-58.8-46.2-103.2-99.1-132.4c-23.6-13-49-20.1-75.9-22.5c-17-1.5-33.8-0.9-50.5,2
		c-28.9,5-55.2,16.2-79.3,32.9c-16.4,11.3-31.1,24.5-46.3,37.2c-0.9,0.8-1.9,1.6-2.7,2.6c-7.3,8.6-16.2,15.3-25.2,21.8
		c-0.6,0.5-1.5,0.9-1.8,1.6c-1.6,4.1-5,6.4-8.1,9.1c-1.5,1.3-3.2,2.5-4,4.6c-0.5,1.3-1.7,2.3-2.7,3.3
		c-13.9,13.9-27.7,27.7-41.6,41.5c-10,9.9-20.2,19.5-30.1,29.4c-25.2,25-49.7,50.6-75.6,74.9c-11.9,11.1-22.8,23.3-35,34.1
		c-5.9,5.2-11.2,11-16.9,16.4c-6.9,6.5-13.6,13.2-20.9,19.3c-11.5,9.7-23.5,18.7-36,27.3c-32.1,22-67.5,34.2-106.2,37.1
		c-19.2,1.4-38.3,0.5-57.3-3.1c-44-8.4-82.3-27.9-114-59.5C87.9,396,67,347,64.1,290.2c-1-19.3,1-38.3,5.4-57.1
		c12.2-51.8,39.8-93.7,82.2-125.8C184,82.8,220.6,68.7,261,64.9c21.2-2,42.4-1,63.4,3.2c31,6.1,59.6,17.9,85.1,36.6
		c19.2,14,36.6,30.2,52.9,47.5c1,1,1.9,2.2,2.9,3.4c-2.2,3.9-6.6,5.7-8.7,9.3c0.5,0.5,0.7,0.9,1,1c30.6,9.3,61.1,18.5,91.7,27.7
		c0.5,0.2,1.1,0.1,2.1,0.1c-0.1-1.2-0.1-2.2-0.2-3.1c-1.9-12.6-3.8-25.3-5.6-37.9c-2.7-18.4-5.2-36.7-7.9-55.1
		c-0.1-0.9-0.7-1.6-1.3-2.9c-7.1,6.4-13.6,12.7-20.5,18.7c-2.8-1.7-4.8-3.9-6.6-6.1c-4.7-5.8-10.3-10.7-15.7-15.8
		s-10.9-10.1-16.3-15.2c-16.8-15.7-35.3-29.2-55.4-40.4c-33.9-19-70.3-30.4-109-34.3C296.7,0,280.4-0.2,264.1,1
		c-22.1,1.7-43.7,5.6-64.9,12.1c-40,12.4-75.6,32.7-106.5,61C36.4,125.6,6.4,189.7,1,265.5c-2.1,29.6,0.8,58.9,8.4,87.7
		c15.1,56.6,44.4,104.6,88.8,142.9c52.6,45.3,114.4,66.8,183.5,68c20.1,0.4,39.9-1.9,59.6-6c46-9.5,86.5-30.3,123.3-59.1
		c12-9.4,23.8-19.1,34.9-29.5c9.3-8.7,18.8-17.4,28.1-26.2c5.5-5.2,10.8-10.8,16.3-16c6.7-6.4,13.6-12.6,20.2-19.2
		c17.7-17.6,35.2-35.4,52.8-53.1c5.7-5.7,11.5-11.2,17.4-17c3,3.6,6,7,8.8,10.5c9,11,18.5,21.6,28.9,31.4
		C680.6,388,688.3,397.4,696.2,406.7z M2740.7,237.7c2.6,0.1,5.2,0.3,7.9,0.3c55.4,0,110.8,0,166.1,0c2,0,4-0.1,6,0
		c9.8,0.5,15.7,6.4,15.8,16.2c0.1,14.7,0.1,29.4,0,44.2c0,1.4-0.5,2.7-0.9,4.4c-3.3,0-6.3,0-9.3,0c-58.6,0-117.2,0-175.9,0
		c-2,0-4-0.1-6,0c-1.4,0.1-2.8,0.5-4.3,0.7c-0.2,1.4-0.4,2.3-0.4,3.3c0,26.2-0.1,52.4,0.1,78.6c0,3.7,0.6,7.5,1.4,11.1
		c3.7,16.4,21.3,34.7,44.5,34.6c59.4-0.2,118.7,0,178.1-0.1c1.4,0,2.9-0.3,4.8-0.5c0.1-2.7,0.3-5.1,0.3-7.5c0-14.2,0-28.4,0-42.7
		c0-41.4,0-82.8,0-124.2c0-5.5-0.4-11-2-16.3c-5.9-20.2-24.1-33.6-46.1-33.6c-58.1-0.1-116.2,0-174.4,0c-1.9,0-3.9,0.2-5.7,0.3
		C2739.6,212.7,2739.5,230.5,2740.7,237.7z M2544.3,399.4c-3.6,0-6.3,0-9.1,0c-55.6,0-111.2,0-166.8,0c-2.5,0-5,0.1-7.5-0.1
		c-6.1-0.5-11.3-4.7-13-10.7c-0.6-2.1-0.8-4.4-0.9-6.6c-0.1-14.2-0.1-28.4,0-42.6c0-1.4,0.5-2.8,0.8-4.5c3.1,0,5.8,0,8.5,0
		c39.2,0,78.3,0,117.5,0c21.2,0,42.4,0,63.6,0c2.2,0,4.5,0.6,6.6-1.1c0.1-0.9,0.3-1.8,0.3-2.8c0-26.7,0.2-53.4-0.1-80.1
		c-0.2-21-16.5-38-33.9-42.8c-5.1-1.4-10.3-1.8-15.5-1.8c-43.4,0.1-86.8,0-130.2,0c-1.5,0-3,0-4.5,0c-19.7,0.7-37.8,14.8-43.1,33.6
		c-1.4,5.1-1.9,10.3-1.9,15.5c0.1,29.9,0,59.9,0,89.8c0,13.5-0.2,26.9,0.1,40.4c0.4,21.5,16.4,40.6,37.3,44.7
		c3.9,0.8,7.9,0.7,11.9,0.8c33.9,0.1,67.8,0,101.8,0c23.4,0,46.9,0,70.3,0c2.4,0,4.9,0.5,7.5-0.9
		C2544.6,420.3,2544.4,410.4,2544.3,399.4z M1617.4,431.1L1617.4,431.1c23.2,0,46.4,0,69.6,0c22.8,0,39-17.4,43.5-32
		c1.7-5.5,2.4-11.2,2.4-16.9c-0.1-33.2,0-66.3,0-99.5c0-10,0.1-20,0-29.9c-0.2-12.8-4.8-23.8-14-32.8c-8.9-8.8-19.7-13.4-32.2-13.6
		c-12.5-0.2-24.9-0.1-37.4-0.1c-33.2,0-66.3,0-99.5,0c-22.5,0-41.4,17.4-45.2,37.6c-0.7,3.9-0.8,7.9-0.8,11.9
		c-0.1,41.9,0,83.8,0,125.7c0,1.7,0,3.5,0,5.2c0.2,9.5,3.3,18.1,9.1,25.6c9.4,12.1,21.6,18.9,37.3,18.8
		C1572.5,431.1,1594.9,431.1,1617.4,431.1z M1269,430.4c1.4-2.5,0.7-5.3,0.7-8c0-54.1,0-108.3,0-162.4c0-2.5-0.1-5,0.1-7.5
		c0.5-6.6,4.5-11.8,10.9-13.6c2.4-0.7,4.9-0.9,7.4-0.9c42.9-0.1,85.8,0,128.7,0c2,0,4,0.1,5.9,0.5c7.2,1.5,11.7,6.9,12.1,14.2
		c0.1,2,0.1,4,0.1,6c0,26.4,0,52.9,0,79.3c0,28.2,0,56.4,0,84.6c0,2.7-0.7,5.5,0.8,7.9c8,1,25.4,0.8,31-0.4c0-2.6,0.1-5.3,0.1-8
		c0-24.2,0-48.4,0-72.6c0-30.7,0.1-61.4-0.1-92.1c0-5.4-0.3-11.1-1.6-16.3c-5.2-20.8-23.8-34.8-45.8-34.8c-58.4-0.1-116.8,0-175.2,0
		c-1.9,0-3.9,0.2-5.8,0.4c-0.3,1-0.8,1.7-0.8,2.4c0,73.1,0,146.2,0,219.3c0,0.7,0.4,1.4,0.6,2C1244.3,431.4,1262.8,431.4,1269,430.4
		z M1790.1,206.3c-6,0-11-0.1-15.9,0c-5.1,0.2-10.3-0.8-15.8,0.9c0,2.7,0,5.2,0,7.7c0,55.1,0,110.3,0,165.4c0,1.7,0,3.5,0,5.2
		c0.4,12,4.6,22.3,12.9,31c9.3,9.7,20.5,14.7,34,14.6c17.2-0.1,34.4,0,51.6,0c28.2,0,56.4-0.1,84.6,0c22.4,0.1,41.3-17.4,45-36.9
		c0.8-4.1,0.9-8.4,0.9-12.6c0.1-34.4,0-68.9,0-103.3c0-21.7,0-43.4,0-65.1c0-2.1,0.7-4.5-1.4-7c-4.6,0-9.5-0.1-14.5,0
		c-5.1,0.2-10.4-0.8-15.8,0.9c0,2.9,0,5.7,0,8.4c0,53.6,0,107.3,0,160.9c0,2.2,0,4.5,0,6.7c-0.3,9.7-6.3,16.1-15.9,16.1
		c-44.7,0.1-89.3,0.1-134,0c-9,0-15-5.9-15.7-14.8c-0.2-2.2-0.1-4.5-0.1-6.7c0-54.1,0-108.3,0-162.4
		C1790.1,212.8,1790.1,210,1790.1,206.3z M2155.7,399.7c-1.5-2.3-2.6-4-3.5-5.7c-6.6-12-13.1-24.1-19.7-36.1
		c-26.2-48.2-52.4-96.3-78.6-144.5c-1.3-2.4-2.7-4.7-4-7c-11.4,0-22.4,0-33.3,0c-0.7,0-1.4,0.3-3.1,0.8
		c8.1,15.2,16.4,29.8,24.5,44.6c8.3,15.1,16.6,30.1,24.9,45.2c8.2,14.8,16.4,29.7,24.6,44.5c8.3,15.1,16.6,30.2,24.9,45.2
		c8.2,14.8,16.1,29.7,24.5,44.2c12.7,0,24.9,0,37.1,0c1.3-2.3,2.6-4.5,3.8-6.7c29.7-53.6,59.4-107.3,89.1-160.9
		c9.4-17,18.8-34,28.2-51.1c0.9-1.6,2.6-3.2,1.6-5.4c-8.9-0.8-30.3-0.6-36.1,0.4c-11.6,21.2-23.2,42.7-34.9,64.1
		c-11.6,21.2-23.1,42.5-34.6,63.7C2179.4,356.3,2167.9,377.8,2155.7,399.7z M2614.4,238.2c3.8-0.1,6.5-0.2,9.2-0.2
		c26.9,0,53.9,0,80.8,0c2.4,0,5,0.9,7.3-1.5c-0.1-9.7,0.4-19.5-0.3-29.9c-3.1-0.1-5.8-0.3-8.5-0.3c-26.9,0-53.9,0-80.8,0
		c-2.4,0-5,0.7-7.6-1.3c0-2.2,0-4.7,0-7.1c0-19.7,0-39.4,0-59.1c0-1.9,0.6-4-1.5-6.1c-4.5,0-9.5-0.1-14.5,0
		c-5.1,0.2-10.4-0.9-15.7,0.9c0,2.9,0,5.6,0,8.4c0,78.8,0,157.6,0,236.4c0,3.2-0.1,6.5,0.2,9.7c0.2,2.7,0.5,5.5,1.2,8.1
		c4,17.4,21.4,35,44.1,34.9c26.2-0.1,52.4,0,78.5,0c1.4,0,2.9-0.3,4.2-0.4c1.2-6.8,1.2-24.9-0.1-31c-2.3-0.1-4.8-0.3-7.2-0.3
		c-23.2,0-46.4,0-69.6,0c-2,0-4,0.1-6-0.1c-7.3-0.7-12.9-6.4-13.5-13.7c-0.2-2-0.1-4-0.1-6c0-44.4,0-88.8,0-133.2
		C2614.4,244,2614.4,241.5,2614.4,238.2z"/>
	<path class="st1" d="M696.2,406.7c-7.9-9.3-15.6-18.7-24.5-27c-10.4-9.8-19.9-20.3-28.9-31.4c-2.9-3.5-5.8-6.9-8.8-10.5
		c-5.9,5.8-11.7,11.3-17.4,17c-17.6,17.7-35.1,35.5-52.8,53.1c-6.6,6.6-13.5,12.7-20.2,19.2c-5.5,5.3-10.8,10.8-16.3,16
		c-9.3,8.8-18.7,17.4-28.1,26.2c-11.1,10.4-22.9,20.1-34.9,29.5c-36.7,28.8-77.3,49.6-123.3,59.1c-19.7,4.1-39.5,6.3-59.6,6
		c-69.1-1.2-130.9-22.7-183.5-68C53.5,457.7,24.3,409.6,9.1,353c-7.7-28.7-10.6-58.1-8.4-87.7c5.4-75.8,35.4-140,91.7-191.4
		c30.9-28.3,66.5-48.6,106.5-61C220,6.3,241.7,2.4,263.8,0.8c16.3-1.2,32.6-1.1,48.8,0.6c38.7,3.9,75,15.3,109,34.3
		c20.1,11.2,38.6,24.6,55.4,40.4c5.4,5.1,10.9,10.1,16.3,15.2c5.4,5.1,11,10,15.7,15.8c1.8,2.2,3.8,4.3,6.6,6.1
		c6.9-5.9,13.4-12.2,20.5-18.7c0.6,1.2,1.2,2,1.3,2.9c2.7,18.4,5.3,36.7,7.9,55.1c1.8,12.6,3.7,25.3,5.6,37.9c0.1,1,0.1,2,0.2,3.1
		c-1,0-1.6,0-2.1-0.1c-30.6-9.2-61.1-18.5-91.7-27.7c-0.3-0.1-0.5-0.5-1-1c2.2-3.6,6.6-5.4,8.7-9.3c-1-1.2-1.9-2.3-2.9-3.4
		c-16.3-17.3-33.7-33.5-52.9-47.5c-25.5-18.7-54.1-30.5-85.1-36.6c-21-4.1-42.2-5.2-63.4-3.2c-40.4,3.8-76.9,17.9-109.3,42.4
		c-42.4,32.1-69.9,74-82.2,125.8c-4.4,18.8-6.4,37.8-5.4,57.1c2.9,56.8,23.8,105.8,64.2,146c31.7,31.5,70,51.1,114,59.5
		c19,3.6,38.1,4.5,57.3,3.1c38.6-2.9,74.1-15.2,106.2-37.1c12.4-8.5,24.5-17.6,36-27.3c7.3-6.1,14-12.8,20.9-19.3
		c5.7-5.4,11-11.2,16.9-16.4c12.2-10.8,23.1-23,35-34.1c25.9-24.3,50.4-49.9,75.6-74.9c10-9.9,20.2-19.5,30.1-29.4
		c13.9-13.8,27.8-27.7,41.6-41.5c1-1,2.2-2,2.7-3.3c0.9-2,2.5-3.2,4-4.6c3.1-2.7,6.6-5,8.1-9.1c0.3-0.7,1.1-1.1,1.8-1.6
		c9-6.6,17.9-13.2,25.2-21.8c0.8-0.9,1.7-1.8,2.7-2.6c15.2-12.7,29.9-25.9,46.3-37.2c24.2-16.7,50.5-27.9,79.3-32.9
		c16.7-2.9,33.6-3.5,50.5-2c26.9,2.4,52.3,9.5,75.9,22.5c52.9,29.2,85.8,73.6,99.1,132.4c4.4,19.4,4.9,39.2,3.2,59.1
		c-7.9,88.8-75.1,154.8-152.5,171.7c-18.5,4-37.2,5.6-56,4.2c-42.1-3-79.2-18.4-111.6-45.3c-13-10.8-25.4-22.4-37.3-34.4
		c-1.6-1.6-3.4-2.9-5.2-4.3C697.4,408.5,696.8,407.6,696.2,406.7z M682.2,291.2c1.9,3.6,4,6.8,6.2,10.1c21,31.3,44.8,60.2,72,86.3
		c13.7,13.1,28.3,25.2,44.2,35.7c14.1,9.4,29,17.3,45.1,22.8c25.1,8.6,50.4,9.6,76,2c17.9-5.3,33.9-14.2,46.3-28.5
		c19-21.8,23.5-46.5,13.3-73.7c-4.2-11.1-10.2-21.1-17.3-30.5c-1.1-1.4-2.1-2.9-3.2-4.5c2.5-3.1,4.9-5.9,7.2-8.8
		c6.8-8.6,12.8-17.7,16.9-27.9c8.6-21.5,8.2-42.7-3.4-63.1c-6-10.6-14.2-19.2-24.1-26.2c-20.2-14.3-42.9-20.7-67.4-21.1
		c-17.5-0.3-34.4,3.3-50.9,9.1c-25.9,9-49.6,22.2-72,37.9c-28,19.6-53,42.6-76.7,67.1C690.2,282,686.4,286.5,682.2,291.2z"/>
	<path class="st2" d="M696.2,406.7c0.6,0.9,1.3,1.8,1.9,2.7c-4.3,4.4-8.6,8.9-12.9,13.4c0.3,0.6,0.3,1.3,0.7,1.7
		c16.7,16.6,33.5,33.1,52.1,47.5c25.9,19.9,55.1,32.8,87.2,39.4c16.2,3.3,32.6,5,49.2,4.6c44.3-1,84.8-14,120.9-39.8
		c46.5-33.2,76-77.8,88.2-133.6c5-23,5.8-46.2,3.1-69.5c-5.5-46.8-24-87.7-55.9-122.3c-29.8-32.5-66.6-53.6-109.4-64.1
		c-20.4-5-41.1-7.1-62-6c-40.9,2.1-78.5,14-112.4,37.2c-21.9,14.9-42.1,31.9-61.7,49.6c-15.8,14.2-31,29.1-45.9,44.2
		c-18.1,18.4-36.6,36.3-55,54.4c-7.8,7.7-15.7,15.2-23.6,22.8c-2.7,2.6-5.1,5.4-7.8,8c-9.5,9.5-19.1,18.8-28.6,28.3
		C507.5,342,490.9,359,474,375.6c-18.5,18.3-37.7,35.9-58.4,51.6c-9.5,7.2-19.2,14.3-29.3,20.7c-23,14.6-48.1,23.4-75,27.2
		c-16,2.2-32,2.1-48.1,0.6c-62.9-5.9-116.7-43.6-147-91.8c-13-20.7-21.2-43.2-25.5-67.2c-3.3-18.2-3.8-36.6-2-54.9
		c4.2-44.4,21.8-83,52.8-115.3c29.2-30.4,64.9-49,106.1-57.1c12.4-2.4,24.9-3.7,37.5-3.6c39.2,0.3,75.1,11.6,107.6,33.6
		c8.9,6,17.1,12.9,25,20.2c21.2,19.4,41.1,40,60.5,61.1c11.3,12.3,22.6,24.7,33.8,37c1.2,1.4,2.3,2.9,3.2,4c1.2-0.5,1.7-0.5,2-0.8
		c4.3-3.9,8.6-7.7,12.7-11.8c26.6-26.2,53.1-52.5,79.8-78.7c22.7-22.3,45.9-43.9,70.9-63.7c19.3-15.3,39.3-29.4,61.5-40.3
		c26.1-12.8,53.5-21.4,82.3-25.8c16.8-2.5,33.6-3.9,50.6-3.2c64.2,2.5,122.2,22.3,172,63.5c49.9,41.3,82.5,93.7,97.4,156.9
		c6.1,26,8.8,52.4,7.4,79.2c-1.1,20.3-4.6,40.1-10.2,59.6c-14,48.4-39.1,90.3-75.5,125.1c-36.2,34.7-78.8,58-127.5,70.1
		c-16,4-32.3,6.4-48.8,7.7c-16.7,1.3-33.4,1.2-50-0.7c-54.4-6-103.3-25.9-146.2-59.9c-16.4-13-31.2-27.6-46.2-42.1
		c-2.7-2.6-5.3-5.1-8.2-7.8c-3.2,2.2-5.3,5-7.9,7.3c-2.4,2.2-4.3,4.9-7.3,6.7c-0.4-0.8-0.8-1.3-1-1.8c-7-30.7-14-61.5-20.9-92.3
		c-0.2-0.8,0-1.6,0-2.3c1.5-1.2,2.9-0.5,4.2-0.2c27.3,6.2,54.7,12.4,82,18.5C690.9,405.7,693.5,406.2,696.2,406.7z M188.9,288.6
		c-1.6,2.1-2.8,3.7-4.1,5.3c-6.2,8.1-11.4,16.7-15.2,26.1c-6.8,16.6-8.4,33.5-3.1,50.8c4.8,15.5,14.2,27.9,26.9,37.6
		c26.2,20,55.9,26.3,88.2,21.7c13.8-2,26.7-6.7,39.3-12.6c18.4-8.7,35.1-19.9,50.8-32.8c29.4-24.3,55-52.2,78.1-82.5
		c7-9.2,13.7-18.6,19.3-28.7c0.9-1.6,2.3-3,1.8-5.3c-0.8-0.9-1.6-2.1-2.6-3.1c-9.6-10-18.9-20.2-28.8-29.8
		c-21.2-20.6-44.1-39.2-69-55.2c-17.7-11.4-36.3-21.3-56.2-28.4c-21.6-7.7-43.6-12.1-66.7-9.6c-22.6,2.4-42.7,10.4-60.3,24.7
		c-6,4.8-11.2,10.3-15.6,16.7c-12,17.7-15.9,36.9-10.3,57.7c3.8,14.2,10.6,26.8,19.8,38.2C183.6,282.3,186.1,285.2,188.9,288.6z"/>
	<path class="st3" d="M2740.7,237.7c-1.2-7.2-1.2-25.1,0.1-31.1c1.8-0.1,3.8-0.3,5.7-0.3c58.1,0,116.2-0.1,174.4,0
		c22,0,40.2,13.4,46.1,33.6c1.6,5.3,2,10.7,2,16.3c0,41.4,0,82.8,0,124.2c0,14.2,0,28.4,0,42.7c0,2.4-0.2,4.9-0.3,7.5
		c-1.9,0.2-3.4,0.5-4.8,0.5c-59.4,0-118.7-0.1-178.1,0.1c-23.2,0.1-40.8-18.2-44.5-34.6c-0.8-3.6-1.4-7.4-1.4-11.1
		c-0.1-26.2-0.1-52.4-0.1-78.6c0-1,0.2-1.9,0.4-3.3c1.5-0.3,2.9-0.6,4.3-0.7c2-0.1,4,0,6,0c58.6,0,117.2,0,175.9,0c3,0,6,0,9.3,0
		c0.4-1.7,0.9-3.1,0.9-4.4c0.1-14.7,0.1-29.4,0-44.2c-0.1-9.8-6-15.7-15.8-16.2c-2-0.1-4,0-6,0c-55.4,0-110.8,0-166.1,0
		C2746,238,2743.3,237.8,2740.7,237.7z M2936.6,399.4c0-7.9,0-14.8,0-21.8c0-7.2,0.1-14.5,0-21.7c-0.1-6.9,0.6-13.8-0.6-20.8
		c-1.4-0.1-2.3-0.3-3.3-0.3c-53.1,0-106.2,0.1-159.3,0.2c-0.2,0-0.5,0.1-0.7,0.2c-0.2,0.1-0.4,0.3-0.9,0.9c-0.1,1.1-0.2,2.5-0.2,4
		c0,14,0,27.9,0,41.9c0,1.2,0,2.5,0.1,3.7c0.7,7.3,6.3,12.9,13.6,13.6c2,0.2,4,0.1,6,0.1c45.6,0,91.2,0,136.9,0
		C2930.6,399.4,2933,399.4,2936.6,399.4z"/>
	<path class="st3" d="M2544.3,399.4c0.1,10.9,0.3,20.8-0.1,30.8c-2.6,1.4-5.1,0.9-7.5,0.9c-23.4,0-46.9,0-70.3,0
		c-33.9,0-67.8,0-101.8,0c-4,0-8,0-11.9-0.8c-21-4.1-36.9-23.2-37.3-44.7c-0.3-13.5-0.1-26.9-0.1-40.4c0-29.9,0-59.9,0-89.8
		c0-5.3,0.5-10.5,1.9-15.5c5.3-18.9,23.4-33,43.1-33.6c1.5-0.1,3,0,4.5,0c43.4,0,86.8,0,130.2,0c5.3,0,10.5,0.4,15.5,1.8
		c17.4,4.8,33.7,21.8,33.9,42.8c0.3,26.7,0.1,53.4,0.1,80.1c0,1-0.2,1.9-0.3,2.8c-2.1,1.7-4.5,1.1-6.6,1.1c-21.2,0.1-42.4,0-63.6,0
		c-39.2,0-78.3,0-117.5,0c-2.7,0-5.5,0-8.5,0c-0.3,1.8-0.8,3.1-0.8,4.5c-0.1,14.2-0.1,28.4,0,42.6c0,2.2,0.3,4.5,0.9,6.6
		c1.7,6,6.8,10.2,13,10.7c2.5,0.2,5,0.1,7.5,0.1c55.6,0,111.2,0,166.8,0C2537.9,399.4,2540.6,399.4,2544.3,399.4z M2512.1,302.2
		c0.1-1.6,0.3-2.8,0.3-4.1c0-14.2,0-28.4,0-42.6c0-1,0-2-0.1-3c-0.9-8.2-6.4-13.7-14.6-14.5c-1.7-0.2-3.5-0.1-5.2-0.1
		c-41.9,0-83.7,0-125.6,0c-2,0-4-0.1-6,0.2c-5.6,0.7-10,3.5-12.3,8.6c-1.2,2.6-1.6,5.8-1.7,8.7c-0.2,14.2-0.1,28.4-0.1,42.6
		c0,1.4,0.3,2.8,0.4,4.1c1.2,0.4,1.9,0.7,2.6,0.7c53.1,0,106.1,0,159.2,0C2510,302.9,2510.7,302.6,2512.1,302.2z"/>
	<path class="st3" d="M1617.4,431.1c-22.4,0-44.9,0-67.3,0c-15.6,0-27.8-6.7-37.3-18.8c-5.8-7.5-8.9-16.1-9.1-25.6
		c0-1.7,0-3.5,0-5.2c0-41.9,0-83.8,0-125.7c0-4,0-8,0.8-11.9c3.8-20.2,22.7-37.6,45.2-37.6c33.2,0,66.3,0,99.5,0
		c12.5,0,24.9-0.1,37.4,0.1c12.5,0.2,23.3,4.8,32.2,13.6c9.1,9,13.8,20,14,32.8c0.1,10,0,19.9,0,29.9c0,33.2,0,66.3,0,99.5
		c0,5.8-0.6,11.4-2.4,16.9c-4.5,14.6-20.6,32.1-43.5,32C1668.5,431.1,1651.2,431.1,1617.4,431.1L1617.4,431.1z M1618,399.4
		c20.9,0,41.9,0,62.8,0c2,0,4,0,6-0.1c6.1-0.3,13.3-6,13.5-13.7c0.1-2.2,0.1-4.5,0.1-6.7c0-40.1,0-80.3,0-120.4c0-2-0.1-4-0.1-6
		c0.1-6.4-5.1-12.8-12.2-14.1c-2.4-0.4-5-0.4-7.4-0.4c-41.9,0-83.7,0-125.6,0c-1.5,0-3-0.1-4.5,0c-8.9,0.6-14.7,6.6-15.2,15.4
		c-0.1,1.2,0,2.5,0,3.7c0,41.1,0,82.3,0,123.4c0,1.7-0.1,3.5,0.1,5.2c0.8,7.2,6.6,12.9,13.8,13.5c2,0.2,4,0.1,6,0.1
		C1576.1,399.4,1597,399.4,1618,399.4z"/>
	<path class="st4" d="M1269,430.4c-6.3,1-24.7,1-30.6-0.1c-0.2-0.6-0.6-1.3-0.6-2c0-73.1,0-146.2,0-219.3c0-0.7,0.4-1.4,0.8-2.4
		c1.9-0.1,3.9-0.4,5.8-0.4c58.4,0,116.8-0.1,175.2,0c22.1,0,40.6,14,45.8,34.8c1.3,5.2,1.6,10.9,1.6,16.3
		c0.1,30.7,0.1,61.4,0.1,92.1c0,24.2,0,48.4,0,72.6c0,2.7-0.1,5.4-0.1,8c-5.6,1.2-23,1.4-31,0.4c-1.5-2.5-0.8-5.3-0.8-7.9
		c-0.1-28.2,0-56.4,0-84.6c0-26.4,0-52.9,0-79.3c0-2,0.1-4-0.1-6c-0.4-7.3-5-12.6-12.1-14.2c-1.9-0.4-4-0.5-5.9-0.5
		c-42.9,0-85.8,0-128.7,0c-2.5,0-5,0.3-7.4,0.9c-6.4,1.8-10.5,6.9-10.9,13.6c-0.2,2.5-0.1,5-0.1,7.5c0,54.1,0,108.3,0,162.4
		C1269.8,425.1,1270.4,427.9,1269,430.4z"/>
	<path class="st5" d="M1790.1,206.3c0,3.7,0,6.5,0,9.2c0,54.1,0,108.3,0,162.4c0,2.2-0.1,4.5,0.1,6.7c0.8,8.9,6.8,14.7,15.7,14.8
		c44.7,0.1,89.3,0.1,134,0c9.6,0,15.6-6.5,15.9-16.1c0.1-2.2,0-4.5,0-6.7c0-53.6,0-107.3,0-160.9c0-2.7,0-5.4,0-8.4
		c5.5-1.7,10.7-0.7,15.8-0.9c4.9-0.2,9.9,0,14.5,0c2,2.5,1.3,4.8,1.4,7c0.1,21.7,0,43.4,0,65.1c0,34.4,0,68.9,0,103.3
		c0,4.2-0.2,8.5-0.9,12.6c-3.7,19.5-22.6,37-45,36.9c-28.2-0.2-56.4,0-84.6,0c-17.2,0-34.4-0.1-51.6,0c-13.5,0.1-24.7-4.9-34-14.6
		c-8.3-8.7-12.5-19.1-12.9-31c-0.1-1.7,0-3.5,0-5.2c0-55.1,0-110.3,0-165.4c0-2.5,0-4.9,0-7.7c5.4-1.7,10.7-0.7,15.8-0.9
		C1779.1,206.2,1784.1,206.3,1790.1,206.3z"/>
	<path class="st4" d="M2155.7,399.7c12.2-21.9,23.7-43.3,35.3-64.7c11.6-21.2,23.1-42.5,34.6-63.7c11.7-21.4,23.3-42.9,34.9-64.1
		c5.7-1,27.2-1.2,36.1-0.4c1,2.3-0.7,3.8-1.6,5.4c-9.3,17-18.8,34.1-28.2,51.1c-29.7,53.6-59.4,107.3-89.1,160.9
		c-1.2,2.2-2.4,4.3-3.8,6.7c-12.3,0-24.4,0-37.1,0c-8.4-14.5-16.3-29.4-24.5-44.2c-8.4-15-16.6-30.1-24.9-45.2
		c-8.2-14.8-16.4-29.7-24.6-44.5c-8.3-15.1-16.6-30.1-24.9-45.2c-8.1-14.7-16.4-29.4-24.5-44.6c1.8-0.5,2.5-0.8,3.1-0.8
		c11,0,21.9,0,33.3,0c1.3,2.3,2.8,4.6,4,7c26.2,48.2,52.4,96.3,78.6,144.5c6.6,12,13.1,24.1,19.7,36.1
		C2153.1,395.7,2154.2,397.3,2155.7,399.7z"/>
	<path class="st3" d="M2614.4,238.2c0,3.3,0,5.7,0,8.2c0,44.4,0,88.8,0,133.2c0,2-0.1,4,0.1,6c0.6,7.3,6.2,13,13.5,13.7
		c2,0.2,4,0.1,6,0.1c23.2,0,46.4,0,69.6,0c2.4,0,4.9,0.2,7.2,0.3c1.3,6.1,1.3,24.2,0.1,31c-1.3,0.1-2.8,0.4-4.2,0.4
		c-26.2,0-52.4-0.1-78.5,0c-22.8,0.1-40.1-17.5-44.1-34.9c-0.6-2.7-1-5.4-1.2-8.1c-0.2-3.2-0.2-6.5-0.2-9.7c0-78.8,0-157.6,0-236.4
		c0-2.7,0-5.5,0-8.4c5.4-1.8,10.6-0.7,15.7-0.9c5-0.2,9.9,0,14.5,0c2.1,2.1,1.5,4.2,1.5,6.1c0,19.7,0,39.4,0,59.1c0,2.5,0,4.9,0,7.1
		c2.7,2,5.3,1.3,7.6,1.3c26.9,0.1,53.9,0,80.8,0c2.7,0,5.4,0.2,8.5,0.3c0.7,10.3,0.2,20.2,0.3,29.9c-2.3,2.4-5,1.5-7.3,1.5
		c-26.9,0.1-53.9,0-80.8,0C2620.9,238,2618.2,238.1,2614.4,238.2z"/>
	<path class="st0" d="M682.2,291.2c4.2-4.6,8-9.2,12.1-13.5c23.7-24.6,48.7-47.5,76.7-67.1c22.4-15.7,46.1-28.9,72-37.9
		c16.5-5.7,33.4-9.4,50.9-9.1c24.5,0.4,47.2,6.8,67.4,21.1c9.9,7,18.1,15.6,24.1,26.2c11.5,20.4,12,41.6,3.4,63.1
		c-4.1,10.2-10.1,19.3-16.9,27.9c-2.3,2.9-4.7,5.7-7.2,8.8c1.1,1.6,2.1,3.1,3.2,4.5c7.1,9.4,13.2,19.5,17.3,30.5
		c10.2,27.2,5.7,51.9-13.3,73.7c-12.4,14.2-28.3,23.1-46.3,28.5c-25.5,7.6-50.9,6.6-76-2c-16.1-5.5-31-13.4-45.1-22.8
		c-15.9-10.5-30.5-22.6-44.2-35.7c-27.2-26.1-51-55-72-86.3C686.2,298,684.1,294.7,682.2,291.2z"/>
	<path class="st0" d="M188.9,288.6c-2.8-3.4-5.3-6.3-7.8-9.4c-9.1-11.4-16-24-19.8-38.2c-5.6-20.8-1.7-40,10.3-57.7
		c4.3-6.4,9.6-11.9,15.6-16.7c17.6-14.3,37.8-22.3,60.3-24.7c23.1-2.5,45.1,1.9,66.7,9.6c19.9,7.1,38.4,17,56.2,28.4
		c24.9,16,47.8,34.6,69,55.2c9.9,9.6,19.2,19.8,28.8,29.8c1,1,1.8,2.2,2.6,3.1c0.5,2.3-1,3.8-1.8,5.3c-5.6,10.1-12.3,19.6-19.3,28.7
		c-23.1,30.2-48.7,58.2-78.1,82.5c-15.6,12.9-32.4,24.2-50.8,32.8c-12.6,5.9-25.5,10.7-39.3,12.6c-32.3,4.6-62-1.7-88.2-21.7
		c-12.8-9.7-22.2-22.2-26.9-37.6c-5.3-17.3-3.7-34.2,3.1-50.8c3.8-9.4,9.1-18,15.2-26.1C186.1,292.3,187.4,290.6,188.9,288.6z"/>
	<path class="st0" d="M2936.6,399.4c-3.6,0-6,0-8.5,0c-45.6,0-91.2,0-136.9,0c-2,0-4,0.1-6-0.1c-7.3-0.7-12.9-6.4-13.6-13.6
		c-0.1-1.2-0.1-2.5-0.1-3.7c0-14,0-27.9,0-41.9c0-1.4,0.1-2.9,0.2-4c0.6-0.5,0.7-0.8,0.9-0.9c0.2-0.1,0.5-0.2,0.7-0.2
		c53.1-0.1,106.2-0.1,159.3-0.2c1,0,1.9,0.2,3.3,0.3c1.2,7,0.4,13.9,0.6,20.8c0.1,7.2,0,14.5,0,21.7
		C2936.6,384.6,2936.6,391.5,2936.6,399.4z"/>
	<path class="st0" d="M2512.1,302.2c-1.4,0.4-2.1,0.7-2.8,0.7c-53.1,0-106.1,0-159.2,0c-0.7,0-1.4-0.4-2.6-0.7
		c-0.2-1.3-0.4-2.7-0.4-4.1c0-14.2-0.1-28.4,0.1-42.6c0-2.9,0.5-6.1,1.7-8.7c2.3-5.1,6.7-7.9,12.3-8.6c2-0.2,4-0.2,6-0.2
		c41.9,0,83.7,0,125.6,0c1.7,0,3.5-0.1,5.2,0.1c8.2,0.8,13.7,6.3,14.6,14.5c0.1,1,0.1,2,0.1,3c0,14.2,0,28.4,0,42.6
		C2512.4,299.4,2512.2,300.6,2512.1,302.2z"/>
	<path class="st0" d="M1618,399.4c-20.9,0-41.9,0-62.8,0c-2,0-4,0.1-6-0.1c-7.2-0.6-13-6.3-13.8-13.5c-0.2-1.7-0.1-3.5-0.1-5.2
		c0-41.1,0-82.3,0-123.4c0-1.2,0-2.5,0-3.7c0.5-8.8,6.3-14.8,15.2-15.4c1.5-0.1,3,0,4.5,0c41.9,0,83.8,0,125.6,0c2.5,0,5,0,7.4,0.4
		c7.1,1.3,12.3,7.7,12.2,14.1c0,2,0,4,0.1,6c0,40.1,0,80.3,0,120.4c0,2.2,0,4.5-0.1,6.7c-0.2,7.6-7.3,13.4-13.5,13.7
		c-2,0.1-4,0.1-6,0.1C1659.8,399.4,1638.9,399.4,1618,399.4z"/>
</g>
</svg>
