<?xml version="1.0" standalone="no"?>
<!DOCTYPE svg PUBLIC "-//W3C//DTD SVG 20010904//EN"
 "http://www.w3.org/TR/2001/REC-SVG-20010904/DTD/svg10.dtd">
<svg version="1.0" xmlns="http://www.w3.org/2000/svg"
 width="3300.000000pt" height="3300.000000pt" viewBox="0 0 3300.000000 3300.000000"
 preserveAspectRatio="xMidYMid meet">
<metadata>
Created by potrace 1.11, written by Peter Selinger 2001-2013
</metadata>
<g transform="translate(0.000000,3300.000000) scale(0.100000,-0.100000)"
fill="#000000" stroke="none">
<path d="M12015 18135 c-398 -73 -829 -413 -1043 -825 -91 -174 -107 -230
-107 -380 0 -96 4 -138 19 -180 59 -175 171 -308 317 -379 46 -22 114 -46 152
-53 37 -7 67 -16 67 -19 0 -4 -20 -58 -44 -121 -61 -157 -153 -437 -177 -533
-63 -262 -11 -475 155 -632 85 -81 148 -117 252 -143 143 -37 289 -20 429 49
138 69 224 163 262 287 12 38 21 53 31 49 7 -3 27 -5 43 -5 27 0 33 -6 53 -52
89 -201 280 -332 501 -345 233 -13 463 108 552 292 18 38 33 76 33 85 1 39 15
41 81 11 94 -42 192 -61 318 -61 123 0 181 9 293 47 l76 26 64 -26 c100 -40
174 -50 306 -44 115 6 154 14 261 57 l55 21 65 -30 c176 -80 395 -77 595 8
l48 21 28 -20 c104 -74 262 -117 389 -106 93 9 206 46 283 92 l58 35 66 -26
c181 -72 396 -74 572 -3 l54 21 59 -66 c143 -159 337 -257 565 -288 283 -38
588 64 866 287 l67 54 63 -24 c218 -82 477 -46 695 95 l62 41 33 -25 c153
-115 373 -171 575 -147 93 11 250 55 302 84 22 12 31 10 92 -20 104 -53 177
-69 309 -68 88 0 134 5 195 23 162 45 304 131 437 264 36 36 93 79 135 102
103 55 186 120 281 219 121 126 233 312 267 443 50 192 -28 402 -190 513 -31
21 -45 40 -54 72 -52 172 -192 333 -357 409 -110 50 -176 63 -329 63 -155 0
-223 -13 -354 -68 l-74 -31 -86 43 c-118 59 -205 75 -361 69 -166 -6 -300 -50
-433 -141 l-37 -26 -49 35 c-110 79 -272 125 -443 125 l-98 0 0 83 c0 268
-163 528 -404 646 -134 65 -234 86 -416 85 -134 -1 -168 -5 -253 -27 -344 -92
-659 -358 -903 -765 -35 -58 -65 -110 -67 -116 -2 -6 -35 6 -75 27 -130 69
-217 82 -479 75 -10 0 -52 8 -93 17 -138 31 -307 9 -458 -61 l-73 -33 -72 24
c-90 30 -181 45 -274 45 l-73 0 0 78 c0 155 -59 300 -168 410 -219 221 -582
238 -846 40 -135 -102 -198 -226 -195 -388 0 -47 -4 -98 -10 -114 -11 -27 -14
-28 -58 -22 -25 3 -63 6 -83 6 l-37 0 -6 113 c-9 200 -72 341 -209 472 -56 55
-98 84 -160 113 -112 54 -173 67 -303 66 -139 0 -227 -25 -311 -87 -85 -62
-115 -106 -179 -262 -9 -22 -24 -51 -34 -64 l-18 -23 -48 78 c-202 323 -579
496 -940 429z"/>
</g>
</svg>
